<?xml version="1.0" encoding="UTF-8" standalone="no"?>
<!-- Created with Inkscape (http://www.inkscape.org/) -->

<svg
   width="612.93701mm"
   height="247.56355mm"
   viewBox="0 0 612.937 247.56355"
   version="1.1"
   id="svg8789"
   inkscape:version="1.2.2 (b0a8486541, 2022-12-01)"
   sodipodi:docname="PotentialLogo1V2-withStroke-GitHub.svg"
   xmlns:inkscape="http://www.inkscape.org/namespaces/inkscape"
   xmlns:sodipodi="http://sodipodi.sourceforge.net/DTD/sodipodi-0.dtd"
   xmlns="http://www.w3.org/2000/svg"
   xmlns:svg="http://www.w3.org/2000/svg">
  <sodipodi:namedview
     id="namedview8791"
     pagecolor="#ffffff"
     bordercolor="#000000"
     borderopacity="0.25"
     inkscape:showpageshadow="2"
     inkscape:pageopacity="0.0"
     inkscape:pagecheckerboard="0"
     inkscape:deskcolor="#d1d1d1"
     inkscape:document-units="mm"
     showgrid="false"
     inkscape:zoom="0.17260032"
     inkscape:cx="918.30652"
     inkscape:cy="307.0678"
     inkscape:window-width="1360"
     inkscape:window-height="706"
     inkscape:window-x="0"
     inkscape:window-y="0"
     inkscape:window-maximized="1"
     inkscape:current-layer="layer1" />
  <defs
     id="defs8786" />
  <g
     inkscape:label="Layer 1"
     inkscape:groupmode="layer"
     id="layer1"
     transform="translate(968.16963,206.52495)">
    <path
       id="path316-7-0-5-3-9-4-2-0-3-9-0"
       style="fill:#ffffff;fill-opacity:1;stroke:#000000;stroke-width:3;stroke-opacity:1;stroke-dasharray:none"
       d="m -445.34526,-206.52055 c -22.8291,0.038 -44.1997,16.2566 -56.4932,39.20639 -15.1287,28.2418 -14.9446,64.8894 3.0955,87.439605 -0.1916,-0.1174 -0.3719,-0.2432 -0.5695,-0.3561 l -0.055,-0.033 -0.057,-0.031 c -2.691,-1.507 -5.7719,-2.6961 -9.3183,-3.1781 -1.8057,-0.2454 -3.5618,-0.2897 -5.287,-0.1525 v 5e-4 c -1.5906,0.1266 -3.1511,0.4421 -4.7041,0.862 0,0 -0.01,0 -0.011,0 0,0.001 -0.01,0 -0.011,0 -3.1006,0.7778 -5.8579,2.1052 -8.1701,3.9491 -5.1069,-4.7857 -11.7545,-6.5844 -17.7829,-6.0182 -6.5308,0.6134 -13.8761,4.3244 -17.619,11.623 l -0.1406,0.2755 -0.1313,0.2832 c -0.4405,0.9542 -2.1075,4.3084 -2.7419,7.2693 l -0.051,0.246 -0.046,0.2459 c -0.5804,3.2339 -0.8366,6.7955 -0.2656,10.4485 -7.2107,-4.898 -15.8271,-7.0877 -24.5603,-6.2528 -3.663,0.3501 -7.2856,1.2314 -10.7771,2.6365 l -0.307,0.123 -0.3007,0.1369 c -0.314,0.1428 -0.9566,0.4642 -1.772,0.9648 -2.3219,-1.7525 -4.6224,-2.7109 -6.396,-3.252 -2.6905,-0.9058 -5.6218,-1.4349 -8.1328,-1.5839 -2.6461,-0.1564 -5.8295,0.012 -8.7711,0.7111 -3.0089,0.7074 -5.4524,1.9416 -7.6114,3.2908 l -0.7679,-0.2868 -2.1735,-0.5473 -0.5121,-0.09 c -5.0133,-0.8952 -10.809,-0.296 -15.9882,2.0546 -4.1607,-3.061 -8.808,-4.4908 -14.0911,-4.4457 -0.016,-0.3083 -0.019,-0.615 -0.043,-0.9245 l -0.021,-0.2852 -0.033,-0.2832 c -0.8718,-7.5561 -5.7578,-14.5721 -13.3795,-17.6625 l 0.084,-0.051 c -0.013,0.01 -0.027,0.015 -0.041,0.021 1.8146,-1.0989 3.5327,-2.5112 5.1562,-4.0886 1.8098,0.9253 3.7877,1.7478 6.0508,2.3042 -0.064,-0.01 -0.1282,-0.015 -0.1922,-0.033 l 0.541,0.1354 c -0.072,-0.017 -0.1336,-0.043 -0.1994,-0.065 6.6173,1.6886 13.3725,0.4256 18.6205,-3.2607 1.1649,0.4515 2.398,0.8451 3.7114,1.1663 0,3e-4 0.01,3e-4 0.01,0.001 13.4865,3.3151 26.6251,-2.8776 34.2408,-12.0395 4.9154,9.4262 15.768,15.732 28.1295,15.6393 -0.023,1e-4 -0.047,0.01 -0.07,0.01 h 0.1447 c -0.025,3e-4 -0.049,-0.01 -0.074,-0.01 19.0698,-0.035 40.3188,-14.4563 34.4078,-36.175005 -0.8432,-3.1097 -2.4364,-6.2224 -4.3481,-9.155 2.215,-2.3626 3.9381,-5.2771 4.7268,-8.8868 0,-0.011 0.01,-0.021 0.01,-0.031 3.8822,-17.6384 -12.0199,-31.8364 -27.8345,-33.4538 h -0.025 -0.025 c -1.5987,-0.1579 -3.2283,-0.2114 -4.869,-0.1638 h -5e-4 c -2.672,0.077 -5.3742,0.4297 -8.0269,1.0444 0.078,-0.5559 0.1316,-1.0139 0.246,-1.7245 -0.051,0.2486 -0.1062,0.4995 -0.1669,0.7524 l 0.2185,-1.0821 c -0.02,0.1211 -0.032,0.2096 -0.051,0.3261 3.2212,-15.73659 -12.9329,-22.80739 -22.8301,-21.62089 -5.5606,0.4267 -11.6696,2.3819 -15.9649,9.6842 l -0.064,0.1111 -0.064,0.1126 c -1.978,3.4997 -3.1262,8.7711 -3.3264,14.43999 -1.6861,-0.031 -3.3755,0.077 -5.0648,0.3266 l -0.076,0.011 -0.076,0.012 c -5.1023,0.8056 -9.4936,2.3541 -13.3718,4.6695 -4.5388,-4.0604 -10.5527,-6.3154 -17.3385,-6.2146 h -0.01 v 5e-4 c 0,1e-4 -2e-4,-5e-4 -0.01,-5e-4 -3.7447,0.019 -7.0379,0.7405 -9.973,1.7715 -3.3305,-2.1409 -7.3138,-3.8296 -12.1657,-4.2205 h -0.01 c -0.566,-0.046 -1.131,-0.072 -1.6945,-0.079 -1.6886,-0.022 -3.3658,0.124 -5.0322,0.4175 0.031,-0.01 0.066,-0.024 0.098,-0.029 l -0.184,0.033 c 0.024,0 0.049,3e-4 0.074,0 -3.5426,0.6109 -7.5994,2.4008 -10.8226,5.536 -2.6488,-1.1228 -5.5767,-1.8647 -8.756,-2.1363 -2.3351,-0.1992 -4.6809,-0.1155 -7.0255,0.23 l -0.076,0.011 -0.076,0.012 c -4.688,0.7402 -8.7755,2.1073 -12.4168,4.1201 -0.914,-0.8986 -1.9067,-1.711 -2.9688,-2.419 l -0.1835,-0.1229 -0.1875,-0.1173 c -4.4817,-2.8011 -8.9662,-3.7233 -13.3041,-3.744 -5.6031,-0.098 -10.2759,1.3899 -13.9258,4.207 -1.3235,-0.8302 -2.6678,-1.5336 -3.8907,-2.0371 l -0.2207,-0.09 -0.2227,-0.084 c -3.3347,-1.2505 -6.7898,-1.7824 -10.1534,-1.5787 -0.7536,-2.8246 -1.6504,-5.61779 -2.7068,-8.36689 -1.469,-3.8491 -3.9294,-8.1931 -7.9432,-11.7559 -4.0724,-3.645 -8.3863,-5.1857 -13.578,-5.1857 h -0.1674 -0.1798 c -10.0876,0.2402 -16.9187,4.6453 -22.1356,11.7497 0.01,-0.012 0.013,-0.024 0.021,-0.034 l -0.1307,0.1777 c 0.01,-0.01 0.014,-0.016 0.021,-0.024 -1.8137,2.4552 -3.491,5.6887 -4.2442,9.4207 -5.9977,-2.8842 -12.88,-2.966 -19.0366,-0.77 -0.522,-2.4894 -1.4489,-4.6882 -2.4577,-6.4177 l -0.2263,-0.3886 -0.2496,-0.3752 c -0.9059,-1.3587 -2.639,-3.5203 -4.5936,-5.0839 l -0.016,-0.014 -0.016,-0.012 c -8.5073,-6.767 -18.3632,-8.8585 -29.0468,-5.6089 0.047,-0.022 0.093,-0.048 0.1431,-0.062 l -0.4883,0.1447 c 0.077,-0.024 0.1514,-0.029 0.2274,-0.045 -6.7198,1.9774 -12.197,7.7785 -13.8829,14.5206 l -0.022,0.088 -0.02,0.088 c -3.242,13.66339 -4.7828,27.47239 -4.2028,41.75919 v 0.013 c 3e-4,0.01 3e-4,0.012 5e-4,0.019 5e-4,0 0,0.01 0,0.01 4e-4,0.01 2e-4,0.018 0,0.027 0.2573,7.5085 1.3987,15.2466 4.0845,23.0353 l 0.031,0.096 0.035,0.093 c 2.3829,6.6193 6.3195,14.609705 14.0602,20.560505 8.9197,6.8925 19.3427,10.476 32.2388,6.7676 0,-6e-4 -2e-4,0 0.01,0 -0.01,0 -0.01,0.01 -0.014,0.01 l 0.029,-0.01 c 0,7e-4 -0.01,4e-4 -0.01,0 3.8858,-1.1146 7.0949,-2.9042 9.9663,-4.931 2.4539,1.9429 5.1083,3.7237 8.1933,5.1496 -0.01,0 -0.017,-0.01 -0.025,-0.01 l 0.1623,0.074 h -0.01 c 12.5382,5.8479 27.6653,4.4981 38.5573,-5.639 3.1455,5.0317 7.9752,8.1513 13.1511,9.384 -4.8407,2.2579 -9.187,6.1585 -12.0664,12.1946 0.011,-0.027 0.022,-0.055 0.034,-0.08 l -0.1013,0.2108 c 0.012,-0.027 0.028,-0.048 0.042,-0.073 10e-5,0 0,-3e-4 0,0.01 -1.6622,3.4042 -3.1208,7.049 -4.4251,10.8313 -2.4548,-0.2926 -4.9564,-0.2406 -7.4414,0.1912 l 0.1545,0.074 c -0.056,-0.028 -0.1155,-0.045 -0.1721,-0.072 0,8e-4 -0.01,0.001 -0.014,0 -0.011,-0.01 -0.021,-0.013 -0.032,-0.019 0,-10e-4 -7e-4,-10e-4 -0.01,0 0,-10e-4 -0.01,0 -0.01,0 -3.9134,-1.8882 -7.9969,-3.0074 -12.2122,-3.2386 -1.4327,-0.079 -2.8815,-0.056 -4.3418,0.07 -5.3844,0.4671 -10.139,2.2812 -14.3413,4.8033 -1.1778,-1.3505 -2.5268,-2.5326 -4.0049,-3.5181 l -0.1835,-0.123 -0.1876,-0.1173 c -4.484,-2.8025 -8.9747,-3.7218 -13.302,-3.7424 -4.029,-0.071 -7.5738,0.6816 -10.6061,2.1544 0.4425,-6.5033 -2.0572,-13.178 -7.6372,-18.1777 -4.2794,-3.9133 -9.1844,-5.5529 -13.2343,-6.2012 -4.7256,-0.8879 -9.524,-1.1648 -13.2344,-1.371 h -0.059 -0.061 c -2.7685,-0.1318 -5.5274,-0.1891 -8.277,-0.1757 -0.9165,0 -1.8317,0.017 -2.7461,0.037 -10.9803,0.2409 -21.8007,1.5936 -32.4512,3.8267 l -0.1483,0.031 -0.1468,0.035 c -1.3736,0.317 -4.5202,1.0506 -7.3572,2.4691 -5.4557,2.7277 -12.2772,8.3541 -12.7935,18.6717 0,-0.043 -0.012,-0.085 -0.01,-0.1307 l -0.023,0.4806 c 0,-0.073 0.014,-0.1381 0.024,-0.2057 -0.4861,8.6311 3.4368,15.9004 10.1756,20.5083 3.2991,2.2696 7.1388,3.3676 11.0722,3.406 -0.1105,2.9671 -0.2973,5.9064 -0.2243,8.9359 v 0.043 0.043 c 0.2266,7.5895 0.9334,16.0773 3.4029,24.6206999 0,0.01 0.01,0.018 0.01,0.026 0,0.013 0.01,0.025 0.01,0.038 1.214,4.4207 3.0323,9.3435 6.2507,14.0865001 l 0.1287,0.1896 0.1349,0.1861 c 3.9845,5.5022 9.3138,9.8336 16.8124,11.976 l 0.2052,0.057 0.2051,0.053 c 5.7065,1.457 12.1825,0.6713 17.8966,-2.0117 4.5596,4.3359 10.7234,6.2722 16.5985,5.8203 l 0.2113,-0.015 0.2088,-0.022 c 5.1018,-0.537 8.9151,-2.5608 11.8592,-5.086 1.6226,1.11 3.4088,2.0223 5.4374,2.6309 l 0.049,0.016 0.049,0.013 c 7.6354,2.2346 15.5208,-0.072 21.115,-4.994 7.6209,3.9433 16.734,4.5582 25.3432,2.0412 -0.03,0.01 -0.054,0.024 -0.085,0.033 l 0.1902,-0.054 c -0.033,0.01 -0.067,0.011 -0.1013,0.021 1.1179,-0.3188 2.0755,-0.7823 3.0799,-1.2046 6.2562,3.2995 13.8796,4.1204 20.5915,1.5389 l 0.3168,-0.1209 0.3105,-0.1364 c 2.0877,-0.9134 3.9494,-2.0396 5.5351,-3.4101 4.4317,3.2155 9.902,5.5414 16.7339,5.8203 h 0.07 0.072 c 6.4988,0.2031 13.7807,-1.3184 20.0081,-7.5076 9.903,-9.7385001 10.5308,-24.9676001 2.4101,-35.744 -2.0429,-2.822 -4.345,-4.2522 -5.7324,-4.9868 5.1129,-3.0788 7.7835,-8.1938 8.322,-13.0369 l 0.092,-0.8263 v -0.832 c 0,-4.2752 -1.5898,-7.5847 -3.3884,-10.0738 1.747,-2.8788 2.5936,-5.9461 2.7849,-8.9359 0.2866,4.9029 2.3234,9.8154 6.1639,14.0839 -0.2471,2.1877 -0.6181,4.4075 -0.7968,6.5959 l -0.01,0.1055 -0.01,0.1054 c -0.6707,9.949 -0.8272,20.6776 0.7597,31.5406999 l 0.025,0.184 0.031,0.1834 c 0.687,4.00750003 1.7134,9.3516 4.3573,14.8048001 l 0.2011,0.4103 0.2227,0.3984 c 1.1316,2.0118 4.1597,7.0708 9.5746,10.0645 0,0 -0.01,-3e-4 -0.011,-0.01 l 0.055,0.03 c 0.032,0.018 0.064,0.036 0.097,0.054 0.01,0 0.014,0.01 0.021,0.01 v 6e-4 c 0.01,0 0.011,0.01 0.017,0.011 4.2841,2.369 9.1686,4.0526 14.673,4.4323 l 0.1168,0.01 0.1194,0.01 c 11.2332,0.5964 20.6359,-1.9597 28.8349,-6.7872 0.1423,0.1681 0.2829,0.3367 0.4315,0.5038 l 0.055,0.062 0.057,0.062 c 2.4653,2.7119 6.282,5.8101 11.9688,6.9474 l 0.2031,0.041 0.2031,0.035 c 10.8866,1.8663 22.8891,-5.0709 26.6175,-15.5861 0.01,-0.01 0.01,-0.015 0.01,-0.023 l -0.01,0.013 c 0,-0.01 -2e-4,-0.012 0.01,-0.018 v -0.01 c 0.034,-0.1215 0.031,-0.2658 0.07,-0.386 0.049,0.1202 0.055,0.2352 0.1059,0.3555 l 0.021,0.055 0.023,0.053 c 2.081,4.8556 5.5359,10.5347 14.1138,13.1738 0.01,10e-4 0.014,0 0.02,0 0,10e-4 0.01,2e-4 0.012,0.01 3.8677,1.2077 7.9415,1.7622 12.6705,1.0155 h 0.016 0.014 c 2.8267,-0.4523 7.9376,-1.6245 12.4984,-4.6426 1.7747,1.0567 3.707,1.9906 5.8312,2.7559 -0.028,-0.01 -0.058,-0.015 -0.086,-0.025 l 0.1721,0.062 c -0.03,-0.011 -0.056,-0.026 -0.085,-0.037 10.865,3.998 24.1842,2.5762 33.8832,-4.0587 1.5561,1.4302 3.2564,2.6913 5.0788,3.7326 l 0.1643,0.093 0.1659,0.09 c 5.989,3.2248 11.9772,4.2312 19.0428,2.5642 -0.048,0.011 -0.086,0.033 -0.1344,0.043 l 0.2966,-0.069 c -0.056,0.014 -0.1057,0.012 -0.1617,0.025 5.2516,-1.1771 9.634,-3.3452 13.3346,-6.1438 4.0613,3.7375 9.4988,5.8607 15.9163,5.4467 l 0.1287,-0.01 0.1271,-0.01 c 12.7174,-1.0381 21.8735,-11.1855 23.2131,-23.2420001 l 0.043,-0.3865 0.023,-0.3891 c 0.1404,-2.3862 0.034,-4.1843 0.1054,-5.3961 l 0.01,-0.17 0.01,-0.1679 c 0.2145,-5.9013999 0.3271,-12.1312999 -0.108,-19.6401999 0,-0.033 -0.01,-0.073 -0.01,-0.1054 -0.01,-0.083 -0.01,-0.1552 -0.01,-0.23 -0.1653,-4.2182 -1.0001,-9.3724 -1.603,-13.5929 l 0.041,0.3162 c -0.3347,-2.7609 -1.2549,-5.4392 -2.5782,-7.9158 l 0.1308,-0.2444 0.1292,-0.2672 c 1.1017,-2.295 1.9286,-4.5792 2.5967,-6.7536 0.038,0.1281 0.066,0.2499 0.1049,0.3788 4.8862,16.2613 15.3594,25.9932 32.0487,29.0448 7.8973,1.4439 13.6684,0.96 22.2229,-1.447 2.4223,6.7267 4.8379,13.4284 9.3943,25.49979993 8.4606,22.41530007 12.8226,37.22620007 23.3148,40.16440007 l 1.9803,0.5566 h 2.0588 c 9.2941,0.3203 24.5649,-8.8801 27.5606,-12.377 2.9957,-3.4969 2.8079,-4.2 6.6264,-15.412 4.7127,-4.1494001 7.8803,-10.1269001 5.531,-17.9457001 -0.5983,-1.9911 -1.4651,-3.5501 -2.4335,-4.9237 9.6994,-19.6713999 10.5165,-44.8236999 -4.1388,-59.7813999 -11.3179,-11.5512 -22.6849,-12.2479 -37.2442,-6.7226 -0.715,0.2714 -1.4277,0.5792 -2.1502,0.8573 l -0.8615,-1.1875 c 1.2611,-1.1652 2.4926,-2.3713 3.6406,-3.6344 9.1022,-10.014 18.7084,-30.286905 20.9667,-43.955405 2.6796,-16.2175 2.0197,-27.9809 -3.1187,-42.4548 -4.8974,-13.79519 -11.3184,-22.62959 -23.2756,-29.86539 -5.947,-3.5987 -11.7524,-5.3482 -16.8418,-5.7092 -1.9877,-0.9383 -4.0491,-1.7579 -6.2033,-2.4081 -3.4454,-1.0398 -6.9406,-1.6658 -10.4531,-1.9043 -0.7508,-0.051 -1.5002,-0.084 -2.2484,-0.1002 l 0.01,-0.02 c -0.363,-0.01 -0.7259,-0.011 -1.0883,-0.011 z m -73.4115,123.763995 c 0.01,0 0.01,0 0.015,0 0,-6e-4 0,-9e-4 0.01,0 0.086,-0.024 0.1565,-0.071 0.2445,-0.092 v -5e-4 l -0.6465,0.1685 c 0.1251,-0.036 0.2539,-0.038 0.3793,-0.07 z m -93.9746,-107.948495 c -0.1102,0 -0.2232,0.017 -0.3365,0.033 l 0.3365,-0.032 z m -0.3365,0.033 -1.1358,0.1091 c 0.1294,-0.01 0.2734,0.01 0.3984,-0.01 0.2427,-0.019 0.4918,-0.065 0.7374,-0.098 z m -179.9032,2.7523 c 0.021,0.018 0.036,0.04 0.057,0.059 0.018,0.016 0.037,0.025 0.055,0.041 z m 7.9913,11.7895 c 0,0.01 -10e-5,0.017 0.01,0.026 0,0.01 0.01,0.013 0.01,0.019 z m 30.9789,7.94879 c 0.046,0 0.094,0.017 0.1391,0.018 0.089,0 0.1669,-0.014 0.2558,-0.012 z m 84.9928,0.7426 h -0.3163 c 0.057,-9e-4 0.1095,0.01 0.1659,0.01 h 0.01 c 0.05,-2e-4 0.091,-0.014 0.1406,-0.014 z m -18.7405,6.1139 c -0.025,0.016 -0.036,0.029 -0.061,0.045 -0.034,0.023 -0.077,0.046 -0.1117,0.068 z m -178.6526,1.0847 c -0.065,0.1526 -0.093,0.2998 -0.1638,0.4537 -0.06,0.1356 -0.1616,0.242 -0.2192,0.3793 z m 87.4163,27.3094 c -0.026,0.3044 -0.087,0.6115 -0.1198,0.9162 l 0.036,-0.385 c 0,0.035 0.016,-0.1173 0.016,-0.1173 z m 19.2345,2.5585 0.01,0.2635 -0.01,0.4843 c 0.01,-0.2524 -0.01,-0.4966 0,-0.7478 z m 167.6751,0.186 0.7131,0.018 c -0.1449,-0.01 -0.2962,0.022 -0.4418,0.018 -0.1056,0 -0.165,-0.035 -0.2713,-0.035 z m -187.3886,13.9677 c 0.016,0.2494 0.042,0.5029 0.045,0.7467 l -0.022,-0.1742 z m -57.2265,17.839205 v 0 l -0.031,0.042 v -0.01 c 0.01,-0.012 0.019,-0.024 0.027,-0.035 z m 153.2671,0.1385 v 0.001 l -0.086,0.024 -0.1876,0.01 c 0.09,-0.01 0.1834,-0.023 0.2738,-0.035 z m -89.5133,9.0459 c 0.1034,0.155 0.2339,0.2801 0.3405,0.4315 0.062,0.084 0.077,0.164 0.1406,0.2481 z m 89.5779,0 c 0.012,0.011 0.034,0.022 0.045,0.033 0.042,0.037 0.079,0.079 0.1209,0.1152 z m -57.2983,2.6671 c 1.9761,1.0448 4.1895,1.91 6.6828,2.5197 -0.01,-10e-4 -0.016,-7e-4 -0.024,0 l 0.045,0.01 c -0.01,-7e-4 -0.01,0 -0.01,0 0,-6e-4 -0.01,-9e-4 -0.01,0 2.6136,0.6426 5.214,0.9215 7.7639,0.8976 -4.9089,1.2012 -10.0115,3.2665 -14.8435,7.0735 l -0.064,0.051 -0.062,0.051 c -5.4478,4.3885 -8.3959,10.1185 -8.7835,16.028 -0.2028,-3.4363 -1.2299,-6.6609 -2.7429,-9.233 l -0.053,-0.09 -0.055,-0.089 c -4.6937,-7.7308 -11.1004,-10.518 -17.0341,-11.9026 l -0.3432,-0.08 -0.3478,-0.064 c -0.1902,-0.035 -0.3871,-0.054 -0.5793,-0.085 1.2651,-0.72 2.4119,-1.5387 3.4448,-2.4247 1.6215,1.1097 3.4073,2.0224 5.4358,2.6309 l 0.049,0.015 0.049,0.013 c 7.8014,2.2834 15.8627,-0.1704 21.4731,-5.3134 z m 26.1695,1.1229 c 0.1194,0.2071 0.2492,0.4012 0.3747,0.6005 -0.8725,0.046 -1.7489,0.1124 -2.6278,0.1901 0.7616,-0.2383 1.5133,-0.5021 2.2531,-0.7906 z m -176.6543,1.2061 c 0.097,0.015 0.209,0.049 0.3074,0.065 0.1119,0.021 0.2199,0.023 0.3318,0.045 z m 243.5065,0.1995 0.033,0.01 v -0.01 c 0,-8e-4 -0.01,0 -0.01,0 -0.01,-9e-4 -0.016,-4e-4 -0.023,0 z m -33.6692,3.8447 c -0.01,0.01 -0.016,0.01 -0.023,0.014 -0.01,0 -0.012,0.01 -0.018,0.01 v -5e-4 c 0,0 0.01,-0.01 0.014,-0.01 h 5e-4 c 0.01,-0.01 0.018,-0.011 0.027,-0.014 z m -196.4232,2.0852 c 0.049,0.043 0.079,0.096 0.1272,0.139 0.059,0.054 0.124,0.087 0.1834,0.1426 z m 18.2279,16.1473 c 0.045,0 0.093,0.017 0.1395,0.018 0.088,0 0.1668,-0.014 0.2558,-0.012 z m 232.8111,0.9575 c -0.01,0 -0.01,0 -0.015,0.01 h 0.015 z m -0.015,0.01 -0.077,0.019 c 0.018,0 0.037,-2e-4 0.055,-0.01 0.01,0 0.015,0 0.022,-0.01 z m 90.8037,0.2176 0.6848,0.092 c -0.1127,-0.018 -0.2333,0.001 -0.3463,-0.015 -0.1207,-0.015 -0.2164,-0.063 -0.3385,-0.077 z m -74.3706,0.4868 c 0.1288,0.037 0.3189,0.1301 0.4547,0.1715 0.1644,0.055 0.3421,0.079 0.5044,0.137 z m -184.3107,3.6359 c -0.8009,0.043 -1.5179,0.1811 -2.2676,0.2837 l 0.037,-0.01 0.877,-0.1643 0.9043,-0.096 z m -16.307,0.5271 c 0.036,0.016 0.063,0.041 0.097,0.059 h 0.01 c 0,0 0.01,2e-4 0.011,0.01 v 0 c 0.015,0.01 0.029,0.01 0.044,0.017 0.01,-7e-4 0.011,-0.001 0.015,0 z m 152.7896,2.0144 c -0.027,0.019 -0.045,0.043 -0.072,0.062 -0.019,0.014 -0.043,0.021 -0.062,0.035 z m 7.9608,0.7069 0.4707,0.493 c -0.077,-0.084 -0.1628,-0.1309 -0.2397,-0.2134 -0.088,-0.091 -0.1405,-0.1892 -0.231,-0.2796 z m -168.0332,0.065 c -0.6926,0.3753 -1.3973,0.69 -2.08,1.1095 l 0.447,-0.2894 0.6899,-0.3824 0.8429,-0.3984 z m 126.491,4.0241 0.1101,0.025 c -0.019,0 -0.047,-0.01 -0.066,-0.01 -0.016,0 -0.029,-0.011 -0.044,-0.014 z m -266.3243,9.311 c 0.017,0.011 0.036,0.018 0.053,0.029 0.019,0.013 0.032,0.03 0.051,0.043 z m 456.5251,3.635 v 5e-4 l -0.2196,0.1643 c 0.041,-0.03 0.072,-0.067 0.1131,-0.098 0.034,-0.026 0.073,-0.041 0.1065,-0.067 z m -330.9984,4.3837 c -0.144,0.5245 -0.2065,1.0388 -0.3307,1.5621 v -0.031 l 0.2387,-1.1994 z m 179.0568,0.6831 v 0.01 c -0.077,0.1856 -0.1778,0.393 -0.2729,0.5948 z m -231.0645,4.592 c -0.026,0.3077 -0.087,0.6189 -0.1189,0.9271 l 0.037,-0.3979 c 0,0.034 0.016,-0.123 0.016,-0.123 z m 395.0271,1.8485 v 0.1043 c 0,0.075 0.01,0.155 0.012,0.2295 z m -375.7926,0.71 0.01,0.2641 -0.01,0.4842 c 0.01,-0.2524 -0.01,-0.4971 0,-0.7483 z m 96.2882,3.577 v 0 l -0.2284,0.043 h -0.01 l -0.6304,0.057 c 0.2734,-0.03 0.6142,-0.084 0.8687,-0.1029 z m 16.6573,1.4511 c 0.094,0.1372 0.1666,0.285 0.2677,0.4191 0.099,0.1373 0.2064,0.2438 0.307,0.3741 z m 173.3357,3.6256 v 5e-4 h 5e-4 l 0.035,0.043 -0.041,0.025 -0.8821,0.3111 c 0.3031,-0.1183 0.5838,-0.262 0.8878,-0.3799 z m 198.4711,0.1086 0.051,0.043 c -0.1552,0.04 -0.4292,0.055 -0.599,0.09 z m -453.7718,3.7341 c 0.01,0.1411 0,0.3166 0,0.4733 l -0.01,-0.4284 z m -50.693,1.6680999 c 0.016,0.2454 0.042,0.4949 0.045,0.7348 l -0.022,-0.1726 z m 103.0996,0.6821 c 0.04,0.7419 0.073,1.4911 0.1675,2.1906 l -0.084,-0.5193 -0.074,-0.863 z m 239.8035,1.5384 h 5e-4 5e-4 l 0.1148,0.2693 0.021,0.7891 c 0,-0.3717 -0.115,-0.695 -0.1369,-1.0584 z m -121.437,6.77330003 c 0.068,0.1053 0.1579,0.1983 0.2273,0.3028 0.062,0.089 0.097,0.1791 0.1602,0.2677 z m 13.0178,9.98639997 c 0.023,0.01 0.045,0.011 0.068,0.014 0.024,0.01 0.042,0.02 0.066,0.027 z m 4.5103,1.8805001 c 0,0.01 -0.01,0.012 -0.01,0.022 h 5e-4 z m -159.89,0.8036 -0.1793,0.2021 -0.1411,0.1431 c 0.097,-0.1122 0.2147,-0.2307 0.3204,-0.3452 z m -72.578,5.3527 c 0.1037,0.1555 0.2347,0.2796 0.3416,0.4315 0.061,0.084 0.076,0.1642 0.139,0.248 z" />
    <path
       style="color:#000000;font-weight:bold;font-size:105.833px;font-family:Arial;-inkscape-font-specification:Schofield;fill:#0a0a0a;fill-rule:nonzero;stroke:none;stroke-width:0.79375;-inkscape-stroke:none"
       d="m -585.3026,-95.39191 c 12.3825,0 22.5424,-7.93747 20.0024,-17.25078 -2.1166,-7.83164 -16.2982,-18.73244 -18.3091,-23.07159 -0.9525,-2.01083 0.635,-4.44499 2.8575,-4.97415 2.4342,-0.635 5.1858,0.635 6.1383,2.85749 0.1059,0.21167 0.2117,0.42333 0.2117,0.635 0.2117,0.74083 0.1058,1.58749 0.1058,2.32832 -0.1058,0.52917 0.1059,0.84667 0.7409,0.9525 3.81,0.9525 7.8316,-0.9525 8.4666,-3.91582 1.5875,-7.09081 -5.3975,-14.39329 -14.7108,-15.34578 -8.5725,-0.84667 -16.7216,2.53999 -20.4258,8.46664 -3.9158,6.13831 -1.5874,12.48829 3.81,18.09744 4.8684,4.97415 14.9225,13.54662 15.6633,18.52077 0.2117,1.5875 -0.8466,2.75166 -2.54,3.38666 -3.3866,1.16416 -7.3024,-1.05833 -7.4083,-3.91582 -0.1058,-1.5875 0.4234,-3.06916 1.3758,-4.44499 0.7409,-1.16416 0.4234,-1.58749 -1.1641,-1.90499 -0.4233,-0.10583 -1.0583,-0.21167 -1.5875,-0.21167 -4.445,-0.21166 -8.5725,2.53999 -8.9958,6.24415 -0.8467,6.03248 4.7625,13.65246 15.7691,13.54662 z m -26.7758,-80.32724 c -2.4342,0.10583 -3.7042,0.63499 -4.7625,2.43416 -2.7516,4.86831 -1.1641,19.04994 1.4817,21.58993 1.4816,1.48166 3.5983,1.90499 6.0325,1.05833 2.0108,-0.84667 4.9741,-3.28083 4.2333,-5.50332 -2.2225,-6.34998 -1.4817,-10.37163 -0.635,-15.55745 0.635,-2.64582 -3.4925,-4.44499 -6.35,-4.02165 z m -45.4024,54.18649 c 0,5.71498 1.0583,10.79497 3.9158,15.34579 2.2225,3.59832 5.1858,6.56164 9.5249,7.61997 9.4192,2.32833 18.415,-4.02165 21.4841,-10.68913 0.2117,-0.74083 0.4234,-1.48166 0.4234,-2.22249 0.1058,-1.27 -0.5292,-2.43416 -1.4817,-2.75166 -1.1641,-0.21167 -1.7991,0.635 -2.4341,1.37583 -0.9525,1.26999 -1.905,2.53999 -3.2809,3.38665 -1.905,1.16417 -4.0216,1.69333 -6.3499,0.635 -1.6934,-0.74083 -2.7517,-2.11666 -3.4925,-3.70415 -1.27,-2.75166 -1.5875,-5.71498 -1.27,-8.67831 0,-0.635 0.3175,-0.74083 0.8466,-0.635 3.4925,0.21167 6.7733,-0.74083 9.7367,-2.53999 4.8683,-2.85749 8.2549,-6.87914 8.7841,-12.69996 0.7408,-7.30248 -4.9741,-15.45162 -15.0283,-13.96995 -6.0325,0.95249 -10.7949,3.91582 -14.4991,8.78413 -4.6566,6.24415 -6.6675,13.33496 -6.8791,20.74327 z m 18.4149,-5.39748 c 1.4817,-3.28082 3.4925,-6.13831 7.0908,-7.40831 0.4233,-0.21167 0.8467,-0.21167 1.1642,-0.3175 0.7408,0 1.5875,-0.21167 2.0108,0.635 0.4233,0.74083 0.1058,1.48166 -0.3175,2.22249 -0.8467,1.16416 -2.0108,2.01083 -3.175,2.75166 -1.905,1.16416 -4.0216,1.90499 -6.1383,2.22249 -0.2117,0 -0.3175,0.10584 -0.635,-0.10583 z m -44.8731,-20.5316 c 0.4233,-1.48166 0,-2.85749 -1.0583,-3.91582 -2.9634,-2.64583 -6.35,-4.12749 -10.4775,-3.38666 -1.905,0.3175 -3.2808,1.16416 -3.9158,3.06916 -0.3175,1.05833 -0.7409,2.01082 -1.0584,2.96332 -2.1166,6.77331 -2.9633,13.75829 -3.5983,20.8491 -0.7408,8.46664 -0.9525,17.03912 0.1059,25.61159 0.4233,3.06916 0.9525,6.13831 2.2225,8.9958 0.6349,1.48167 1.7991,2.11666 3.3866,2.32833 3.2808,0.52916 6.4558,-0.3175 9.2075,-2.01083 2.6458,-1.58749 4.5508,-3.70415 5.2916,-6.66748 0.1059,-0.52916 0.2117,-1.05833 -0.1058,-1.58749 -2.1167,-3.38666 -2.7517,-7.19665 -3.2808,-11.00663 0,-0.52917 0.2116,-0.635 0.635,-0.635 0.9525,0 1.7991,-0.10583 2.6458,-0.3175 0.635,-0.10583 0.9525,0.10583 1.1642,0.635 2.2225,4.65665 5.3974,8.6783 9.4191,12.17079 2.0108,1.79916 4.2333,3.28083 6.985,3.91582 3.9158,1.05833 7.6199,-0.74083 8.9958,-4.44498 0.5291,-1.48166 0.635,-2.96333 0.3175,-4.55082 -0.4234,-1.5875 -1.1642,-2.85749 -2.9633,-3.38666 -0.7409,-0.3175 -1.3759,-0.74083 -2.0109,-1.16416 -3.3866,-2.01083 -6.0325,-4.97415 -8.4666,-8.04331 -0.5292,-0.635 -0.5292,-1.05833 0.2117,-1.58749 4.5508,-3.49249 8.2549,-7.61998 10.3716,-12.91163 1.6933,-4.12749 2.3283,-8.25497 1.0583,-12.69996 -1.4816,-4.65665 -5.08,-7.30248 -10.16,-7.19664 -4.0216,0 -7.4083,1.58749 -10.5833,3.70415 -1.7991,1.16416 -3.2808,2.43416 -4.9741,3.80999 z m -3.5983,26.77575 c -0.1059,-2.75166 0,-5.39749 0.3175,-7.93748 l 0.7408,-6.77331 c 0.1058,-0.74083 0.4233,-1.27 1.1642,-1.69333 1.3758,-0.635 2.7516,-1.26999 4.2333,-1.48166 2.7516,-0.42333 4.7625,1.27 4.5508,4.02165 -0.1058,1.48167 -0.5292,2.75166 -1.1642,4.02166 -2.0108,3.91582 -4.9741,6.98498 -8.7841,9.3133 -0.2117,0.21167 -0.4233,0.3175 -0.635,0.42333 -0.1058,0 -0.2117,0 -0.4233,0.10584 z m -56.3033,-0.84667 c 0,5.71498 1.0584,10.79497 3.9159,15.34579 2.2224,3.59832 5.1858,6.56164 9.5249,7.61997 9.4192,2.32833 18.415,-4.02165 21.4841,-10.68913 0.2117,-0.74083 0.4234,-1.48166 0.4234,-2.22249 0.1058,-1.27 -0.5292,-2.43416 -1.4817,-2.75166 -1.1642,-0.21167 -1.7992,0.635 -2.4342,1.37583 -0.9525,1.26999 -1.905,2.53999 -3.2808,3.38665 -1.905,1.16417 -4.0216,1.69333 -6.35,0.635 -1.6933,-0.74083 -2.7516,-2.11666 -3.4925,-3.70415 -1.27,-2.75166 -1.5875,-5.71498 -1.27,-8.67831 0,-0.635 0.3175,-0.74083 0.8467,-0.635 3.4925,0.21167 6.7733,-0.74083 9.7366,-2.53999 4.8684,-2.85749 8.255,-6.87914 8.7842,-12.69996 0.7408,-7.30248 -4.9742,-15.45162 -15.0283,-13.96995 -6.0325,0.95249 -10.795,3.91582 -14.4991,8.78413 -4.6567,6.24415 -6.6675,13.33496 -6.8792,20.74327 z m 18.415,-5.39748 c 1.4816,-3.28082 3.4925,-6.13831 7.0908,-7.40831 0.4233,-0.21167 0.8466,-0.21167 1.1641,-0.3175 0.7409,0 1.5875,-0.21167 2.0109,0.635 0.4233,0.74083 0.1058,1.48166 -0.3175,2.22249 -0.8467,1.16416 -2.0109,2.01083 -3.175,2.75166 -1.905,1.16416 -4.0217,1.90499 -6.1383,2.22249 -0.2117,0 -0.3175,0.10584 -0.635,-0.10583 z m -49.3182,-12.91163 c 0,-2.75165 -0.1058,-5.60915 0.1059,-8.3608 0.2116,-2.2225 -0.9525,-3.17499 -2.7517,-3.91582 -4.2333,-1.5875 -7.5141,-0.74084 -9.9483,3.28082 -1.3758,2.32832 -1.7992,4.97415 -2.3283,7.51414 -2.2225,11.32413 -2.6458,22.7541 -0.9525,34.07823 0.5291,3.59832 1.3758,7.19664 3.2808,10.37163 1.3758,2.43416 3.4925,3.38666 6.2442,3.17499 2.0108,-0.21166 3.5983,-1.26999 4.8683,-2.75166 0.8466,-1.05833 1.0583,-2.43416 1.0583,-3.80998 l 0.3175,-16.08662 c 0,-0.52917 -0.1058,-1.05833 0.635,-1.05833 2.8575,-0.42333 5.715,-0.635 8.5725,-0.42333 0.8466,0 1.1641,0.3175 1.1641,1.26999 0,4.55082 0.4234,8.99581 1.5875,13.44079 0.5292,2.01083 1.1642,3.91583 2.4342,5.60915 0.635,0.9525 1.4816,1.5875 2.54,1.905 4.3391,1.26999 9.5249,-2.53999 9.6308,-7.09081 l 1.0583,-29.31574 c 0.2117,-5.29165 0.635,-10.68914 0.7408,-15.98079 0,-1.69333 -0.7408,-2.85749 -2.0108,-3.70415 -1.6933,-1.05833 -3.4925,-1.48166 -5.5033,-1.48166 -4.0217,-0.10584 -5.8208,1.26999 -6.985,5.07998 l -0.2116,0.635 c -1.5875,5.50331 -2.54,11.11246 -2.9634,16.72161 -0.1058,0.9525 -0.2116,1.37583 -1.3758,1.16416 -2.7517,-0.52916 -5.5033,-0.42333 -8.1491,0.21167 -0.8467,0.21167 -1.0584,0.10583 -1.0584,-0.74083 0.1059,-3.28082 0.1059,-6.45581 0,-9.73664 z m -70.8022,29.20991 c 2.7516,6.24415 7.0908,11.11247 13.3349,13.96996 7.62,3.59832 16.51,2.64582 22.6483,-3.49249 4.9742,-4.76249 8.1491,-10.5833 10.4775,-16.93328 4.3391,-11.8533 5.5033,-24.12993 4.2333,-36.61822 -0.635,-5.82081 -2.0108,-11.5358 -4.1275,-17.03911 -0.8467,-2.2225 -2.1167,-4.33916 -3.9158,-5.92665 -1.0583,-0.9525 -2.2225,-1.37583 -3.5983,-1.37583 -4.445,0.10583 -7.9375,2.22249 -10.4775,5.71498 -1.5875,2.11666 -2.4342,4.55082 -1.0583,7.30248 l 0.2116,0.635 c 3.81,12.06496 4.8684,24.23575 2.1167,36.72405 -0.7408,3.28082 -1.7992,6.45581 -3.81,9.20747 -1.6933,2.32833 -4.2333,3.38666 -6.8791,2.75166 -2.1167,-0.52917 -3.5984,-2.01083 -4.7625,-3.80999 -2.3283,-3.38666 -3.81,-7.19664 -4.7625,-11.11247 -1.905,-7.7258 -2.1167,-15.55745 -1.0583,-23.38909 0.2116,-1.69333 -0.3175,-2.64582 -1.5875,-3.59832 -4.5509,-3.38666 -12.1708,-1.27 -14.3933,4.02165 -0.3175,0.635 -0.3175,1.37583 -0.2117,2.11666 0.9525,5.71499 1.27,11.42997 0.7408,17.25078 -0.5291,4.55082 -1.3758,8.88997 -3.3866,13.01746 -1.0583,2.22249 -2.4342,4.12749 -4.5508,5.39748 -1.905,1.05833 -2.9634,0.9525 -4.445,-0.52916 -1.3758,-1.27 -2.4342,-2.85749 -3.2808,-4.44499 -1.27,-2.64582 -2.2225,-5.50331 -2.7517,-8.3608 -1.4817,-7.19665 -1.5875,-14.39329 -0.7408,-21.58994 0.635,-5.71498 1.7991,-11.42996 4.1275,-16.72161 0.7408,-1.48166 0.4233,-2.64582 -0.3175,-3.91582 -0.4234,-0.635 -0.9525,-1.27 -1.4817,-1.69333 -4.6567,-3.70415 -9.8425,-4.76248 -15.5575,-2.96332 -1.9049,0.52916 -3.0691,1.69333 -3.5983,3.80999 -2.9633,12.48829 -4.3391,24.97658 -3.81,37.78238 0.2117,6.34998 1.1642,12.59412 3.2809,18.73244 1.905,5.29165 4.5508,10.2658 9.1016,13.75829 5.6091,4.33915 11.9591,6.24414 18.9441,4.23332 5.1858,-1.48166 8.89,-4.97415 11.9591,-9.31331 1.0584,-1.48166 1.905,-3.06915 2.8575,-4.76248 z m 81.4019,100.75297 c -0.2116,-0.3175 -0.5291,-0.52916 -0.9525,-0.74083 -0.4233,-0.21167 -0.8466,-0.52916 -1.3758,-0.21167 -0.4233,0.3175 -0.5292,0.84667 -0.4233,1.37583 0.1058,0.84667 -0.1059,1.5875 -0.7409,2.01083 -1.1641,0.84666 -2.4341,0.42333 -3.1749,-0.84666 -0.635,-1.27 -0.9525,-2.64583 -1.27,-3.91582 -1.6934,-7.09082 -1.6934,-14.18163 -0.8467,-21.27244 0.3175,-1.69333 0.3175,-1.69333 2.0108,-1.90499 1.7992,-0.10583 3.5983,-0.3175 5.3975,-1.05833 0.7408,-0.42333 1.0583,-0.9525 1.1642,-1.905 0,-1.37582 -0.8467,-2.01082 -1.7992,-2.64582 -1.27,-0.74083 -2.7516,-1.05833 -4.1275,-1.37583 -0.635,-0.10583 -0.8466,-0.3175 -0.635,-0.9525 1.27,-4.44498 2.8575,-8.78414 5.2917,-12.69996 1.27,-1.90499 1.0583,-3.70415 0,-5.50331 -1.7992,-2.96333 -4.445,-4.33916 -7.62,-5.07999 -4.0217,-0.74083 -9.525,0.635 -12.065,6.03248 -2.54,5.18582 -4.6566,10.5833 -6.0324,16.29829 -0.4234,1.58749 -1.0584,2.53999 -2.7517,2.64582 -1.3758,0 -2.54,0.635 -3.5983,1.5875 -1.27,1.16416 -1.1642,2.75165 0.3175,3.80998 0.8466,0.52917 1.7991,1.05833 2.8575,0.9525 0.9525,0 1.1641,0.42333 0.9525,1.27 -0.635,4.65665 -0.8467,9.3133 -0.5292,14.07579 0.1058,2.75165 0.4233,5.50331 0.9525,8.25497 1.1642,5.29165 2.8575,10.2658 6.4558,14.39329 3.3867,3.91582 7.5142,6.66748 12.7,6.87914 3.3866,0.10584 6.5616,-0.74083 8.9958,-3.17499 4.445,-4.33915 4.7625,-11.32413 0.8466,-16.29828 z m -36.4065,-6.45581 c 0.1058,-6.98498 0.2116,-13.96996 -0.1059,-20.8491 -0.1058,-2.32833 -1.1641,-3.59832 -3.5983,-4.02166 -2.7516,-0.52916 -5.3975,-0.10583 -7.8316,1.5875 -0.5292,0.3175 -0.8467,0.3175 -1.27,-0.10583 -1.1642,-1.05833 -2.4342,-2.11666 -3.81,-2.75166 -6.0325,-2.96333 -11.8533,-2.2225 -17.3566,1.26999 -4.9742,3.06916 -8.5725,7.51415 -11.1125,12.69996 -3.7041,7.83165 -4.7625,15.98079 -2.3283,24.34159 3.3866,11.32414 13.3349,14.60496 22.6483,11.8533 3.3866,-0.9525 5.9266,-3.17499 8.1491,-5.82081 0.5292,-0.635 0.8467,-0.74084 1.1642,0.10583 0.4233,0.84666 0.8466,1.58749 1.27,2.43416 2.4341,3.80999 7.7258,5.60915 11.8532,4.02165 1.6934,-0.74083 2.3284,-1.58749 2.3284,-3.38665 0,-7.19665 -0.1059,-14.28746 0,-21.37827 z m -27.3049,1.05833 c 0.3175,-4.44499 2.4341,-8.99581 6.5616,-12.4883 0.7408,-0.63499 1.4817,-1.05833 2.3283,-1.16416 0.7409,0 1.1642,0.10583 0.9525,0.9525 -1.4816,5.39748 -1.4816,10.9008 -1.27,16.40411 0,1.69333 -1.4816,3.70416 -3.175,4.23332 -1.3758,0.42334 -2.8574,-0.3175 -3.9158,-2.01082 -0.8466,-1.27 -1.3758,-2.96333 -1.4816,-5.92665 z m -52.3873,-18.30911 c 0,-2.75166 -0.1059,-5.60915 0.1058,-8.36081 0.2117,-2.22249 -0.9525,-3.17499 -2.7517,-3.91582 -4.2333,-1.58749 -7.5141,-0.74083 -9.9483,3.28082 -1.3758,2.32833 -1.7991,4.97416 -2.3283,7.51415 -2.2225,11.32413 -2.6458,22.75409 -0.9525,34.07822 0.5292,3.59833 1.3758,7.19665 3.2808,10.37164 1.3759,2.43416 3.4925,3.38665 6.2442,3.17499 2.0108,-0.21167 3.5983,-1.27 4.8683,-2.75166 0.8467,-1.05833 1.0583,-2.43416 1.0583,-3.80999 l 0.3175,-16.08661 c 0,-0.52917 -0.1058,-1.05833 0.635,-1.05833 2.8575,-0.42334 5.715,-0.635 8.5725,-0.42334 0.8467,0 1.1642,0.3175 1.1642,1.27 0,4.55082 0.4233,8.9958 1.5875,13.44079 0.5291,2.01083 1.1641,3.91582 2.4341,5.60915 0.635,0.9525 1.4817,1.5875 2.54,1.90499 4.3392,1.27 9.525,-2.53999 9.6308,-7.09081 l 1.0583,-29.31574 c 0.2117,-5.29165 0.635,-10.68913 0.7409,-15.98078 0,-1.69333 -0.7409,-2.85749 -2.0108,-3.70416 -1.6934,-1.05833 -3.4925,-1.48166 -5.5034,-1.48166 -4.0216,-0.10583 -5.8208,1.27 -6.9849,5.07999 l -0.2117,0.63499 c -1.5875,5.50332 -2.54,11.11247 -2.9633,16.72162 -0.1059,0.95249 -0.2117,1.37583 -1.3759,1.16416 -2.7516,-0.52916 -5.5033,-0.42333 -8.1491,0.21167 -0.8467,0.21166 -1.0583,0.10583 -1.0583,-0.74083 0.1058,-3.28083 0.1058,-6.45582 0,-9.73664 z m -50.1649,-22.33076 c 0.3175,0.84666 0.1058,1.37583 0,1.90499 -1.1642,8.57247 -1.905,17.25078 -1.6934,26.03492 0.2117,7.09081 0.8467,14.18162 2.8575,21.06077 0.9525,3.49248 2.2225,6.77331 4.2333,9.73663 2.2225,3.06916 5.08,5.29165 8.7842,6.34998 4.9741,1.27 12.3824,-1.48166 14.1816,-8.14914 0.2117,-0.84666 0.4233,-1.69333 -0.1058,-2.43416 -2.2225,-3.59832 -3.0692,-7.61997 -3.81,-11.74746 -2.0109,-10.47747 -2.54,-21.1666 -2.2225,-31.85573 0.1058,-3.70416 0.3175,-7.40831 0.8466,-11.11247 0.3175,-2.01083 0.3175,-2.01083 2.4342,-1.90499 4.8683,0.3175 9.7366,0.95249 14.3933,2.85749 0.8467,0.3175 1.5875,0.52916 2.4342,-0.10584 3.8099,-2.96332 4.0216,-8.3608 0.4233,-11.53579 -1.5875,-1.48166 -3.5983,-2.2225 -5.715,-2.53999 -3.81,-0.74084 -7.7258,-0.9525 -11.5358,-1.16417 -13.335,-0.635 -26.5641,0.635 -39.6874,3.38666 -1.3758,0.3175 -2.7516,0.635 -4.0216,1.26999 -2.54,1.27 -4.445,3.06916 -4.5508,6.13832 -0.2117,3.17499 1.0583,5.60915 3.7041,7.40831 1.3758,0.9525 2.7517,1.16416 4.3392,0.635 2.2225,-0.74083 4.445,-1.48167 6.6674,-2.11666 2.6459,-0.84667 5.2917,-1.69333 8.0434,-2.11666 z m 425.9773,31.99533 c -0.1058,-3.38666 -0.8466,-7.83164 -1.4816,-12.27663 -0.4234,-3.49249 -2.2225,-5.60915 -5.3975,-6.24415 -2.7517,-0.52916 -5.3975,0 -8.0433,0.635 -1.27,0.3175 -2.0108,1.16416 -2.3283,2.43416 -0.5292,1.69333 -0.8467,3.59832 -1.0584,5.50332 -1.27,9.84246 -1.0583,19.79077 -0.3175,29.73907 0.3175,3.28082 1.0584,6.45581 2.1167,9.3133 1.3758,3.49249 3.7042,5.07999 6.985,4.86832 5.1858,-0.42333 8.8899,-4.23332 9.5249,-9.9483 0.1059,-1.79916 0,-3.59832 0.1059,-5.39748 0.2116,-5.82082 0.3175,-11.64163 -0.1059,-18.62661 z m -15.3457,-34.50156 c 0,0.3175 -0.1059,0.635 0,0.9525 0.4233,3.06915 0.9525,5.92664 2.9633,8.46664 1.6933,2.11666 4.0216,2.43416 6.2441,0.74083 1.5875,-1.16417 2.7517,-2.85749 3.7042,-4.65665 1.27,-2.64583 2.1166,-5.50332 2.7516,-8.25498 0.4234,-2.64582 -0.4233,-4.76248 -2.6458,-6.03248 -2.6458,-1.48166 -5.2916,-1.90499 -8.255,-1.05833 -2.2224,0.52917 -3.8099,2.01083 -4.3391,4.44499 -0.4233,1.79916 -0.635,3.49249 -0.4233,5.39748 z m -24.7649,36.82988 c 0,3.38666 -0.2117,6.87915 -0.8467,10.2658 -0.635,3.28083 -1.6933,6.45582 -3.5983,9.31331 -1.4817,2.43416 -3.81,2.64582 -5.715,0.635 -1.3758,-1.48167 -2.1167,-3.28083 -2.2225,-5.29165 0,-1.48167 -0.9525,-2.11666 -2.3283,-1.37583 -1.27,0.635 -1.7992,1.90499 -2.0109,3.17499 -1.1641,5.39748 1.905,11.85329 7.0908,14.81662 2.7517,1.48166 5.5034,1.90499 8.5725,1.16416 5.2917,-1.16416 9.3133,-4.23332 12.4883,-8.46664 4.0217,-5.71498 6.1383,-12.17079 6.5617,-19.04994 0.635,-9.6308 -1.3759,-18.52077 -6.6675,-26.66992 -1.0583,-1.58749 -2.4342,-2.53999 -4.3392,-2.75165 -4.0216,-0.635 -7.6199,0.52916 -10.6891,3.38665 -1.1642,1.16417 -1.3758,2.64583 -0.4233,4.12749 0.7408,1.16416 1.27,2.32833 1.7991,3.59832 1.5875,4.23332 2.2225,8.57247 2.3284,13.12329 z m 9.1016,-40.85153 c 0,-1.905 0,-3.59833 -1.1642,-4.86832 -3.4925,-4.02166 -10.2658,-3.17499 -12.3824,0.95249 -0.635,1.37583 -1.3759,2.64583 -1.6934,4.12749 -0.7408,4.12749 -0.3175,7.93748 2.7517,11.00663 2.7517,2.75166 5.715,2.64583 8.255,-0.3175 2.7516,-3.28082 4.0216,-6.98497 4.2333,-10.90079 z m -28.4692,35.34822 c -1.1641,-4.55082 -4.0216,-9.20747 -6.8791,-12.1708 -6.4558,-6.45581 -15.9808,-8.3608 -24.6591,-4.86832 -1.1642,0.52917 -2.0108,0.9525 -2.0108,2.32833 0,0.3175 -0.3175,0.42333 -0.635,0.52917 -4.3392,1.69332 -7.5142,4.55081 -9.8425,8.25497 -7.0908,11.42996 -4.8683,28.04574 4.9742,37.35905 2.1166,2.11666 4.5508,3.80999 7.5141,4.86832 6.5617,2.43416 14.8166,1.48166 20.4258,-2.43416 10.7949,-7.61998 14.3933,-21.58993 11.1124,-33.86656 z m -13.4407,20.00243 c -1.4817,2.11666 -3.4925,3.49249 -6.1384,3.91583 -3.3866,0.42333 -6.0324,-0.9525 -7.7258,-3.70416 -3.7041,-6.13831 -2.0108,-15.98078 3.7042,-20.63743 0.8466,-0.74084 1.905,-1.37583 2.9633,-1.79917 1.3758,-0.42333 1.905,-1.48166 1.905,-2.75165 v -0.635 c 2.1167,0.84666 3.7042,2.32832 4.9742,3.91582 4.5508,5.92665 4.6566,15.55745 0.3175,21.69576 z m -54.6099,-22.64826 c 0,0 0,0 0,0.10584 0,0.21166 0,0.52916 -0.1058,0.84666 -1.7992,7.72581 -2.4342,15.66328 -1.905,23.60076 0.1058,3.49249 0.635,6.98498 2.0108,10.2658 0.9525,2.22249 2.3284,4.02165 4.7625,4.76248 2.0108,0.635 3.9158,0.84667 5.9267,0.52917 2.6458,-0.42333 5.8208,-1.27 7.7258,-3.17499 0.8466,-0.74083 1.0583,-1.37583 0.5291,-2.32833 -0.635,-1.05833 -1.0583,-2.22249 -1.3758,-3.38665 -2.0108,-8.14914 -2.0108,-16.29828 -0.9525,-24.55326 0.8467,-6.03248 2.2225,-11.95913 4.3392,-17.77994 0.7408,-2.01083 0,-2.96333 -1.27,-3.91582 -0.635,-0.52917 -1.3759,-0.84667 -2.1167,-1.05833 -2.6458,-0.9525 -6.2441,-1.16417 -8.89,-0.52917 -3.175,0.74083 -5.3974,2.85749 -7.4083,5.07999 -4.3391,4.97415 -6.7733,10.5833 -9.3133,16.72161 -0.1058,0.21167 -0.2116,0.635 -0.635,0.9525 0,-0.52917 -0.1058,-0.84667 -0.1058,-1.16417 -0.2117,-5.50331 0.4233,-10.9008 2.4342,-15.98078 0.6349,-1.69333 0.4233,-2.22249 -1.27,-2.85749 l -0.8467,-0.21167 c -2.9633,-0.52916 -6.4558,0.10584 -8.89,1.905 -1.905,1.37583 -3.4925,3.06915 -4.8683,4.97415 -1.905,2.75166 -3.2808,5.71498 -4.3392,8.78414 -0.1058,0.3175 -0.1058,0.635 -0.3175,0.84666 -0.1058,-3.70415 -0.2116,-7.51414 -0.2116,-11.2183 0,-1.69332 -0.5292,-3.06915 -1.6933,-4.23332 -2.2225,-2.43416 -5.08,-3.49249 -8.3609,-3.17499 -1.9049,0.10584 -3.3866,1.05833 -4.3391,2.75166 -1.1642,1.905 -2.0108,3.91582 -2.7517,6.03248 -2.7516,8.46664 -3.81,17.25078 -3.4925,26.14075 0.2117,4.65666 0.8467,9.41914 2.3284,13.86413 0.8466,2.43416 1.7991,4.65665 3.4925,6.56164 1.0583,1.16417 2.2225,2.01083 3.81,2.32833 3.7041,0.635 8.6783,-2.22249 9.9483,-5.82082 0.5291,-1.48166 0.4233,-3.17499 0.4233,-4.76248 0.1058,-2.75166 -0.1058,-5.60915 0.4233,-8.36081 0.7408,-4.33915 2.1167,-8.46664 4.0217,-12.48829 0.1058,-0.3175 0.2116,-0.635 0.635,-0.84667 l 0.2116,1.5875 c 0.5292,3.49249 1.3759,6.87914 3.4925,9.84247 1.1642,1.79916 2.7517,3.17499 4.8683,3.80999 3.0692,0.95249 5.1859,-0.3175 5.715,-3.49249 1.3759,-6.87915 3.7042,-13.33496 6.8792,-18.83828 0.4233,-0.74083 0.8466,-1.58749 1.4816,-2.11666 z m -95.7788,-21.4841 c -0.8467,5.39749 -1.4817,10.5833 -1.905,15.76912 -0.635,9.41914 -0.7409,18.94411 0.635,28.36324 0.635,3.70416 1.3758,7.30248 3.0691,10.79497 0.9525,1.69333 2.0109,3.38666 3.81,4.33915 2.6458,1.48167 5.5033,2.43416 8.5725,2.64583 11.9591,0.635 21.6958,-4.02166 29.8449,-12.1708 l 0.3175,-0.3175 c 0.8467,-1.16416 1.0583,-2.32832 0.635,-3.70415 -0.9525,-2.75166 -3.0692,-3.91582 -5.6091,-4.76249 -1.4817,-0.42333 -2.7517,-0.31749 -4.0217,0.52917 -2.9633,2.11666 -6.4558,3.06916 -10.0541,3.38666 -1.905,0.21166 -3.3867,-0.42334 -4.7625,-1.48167 -1.1642,-1.05833 -1.905,-2.22249 -2.4342,-3.70415 -0.9525,-2.85749 -1.3758,-5.92665 -1.5875,-8.88997 -0.2116,-1.905 -0.1058,-2.01083 1.7992,-2.32833 4.3391,-0.84666 8.7841,-0.9525 13.2291,-0.10583 2.54,0.42333 4.1275,-0.42333 5.3975,-2.43416 2.2225,-3.80999 0.4233,-8.36081 -4.0217,-9.31331 -1.905,-0.42333 -3.7041,-0.74083 -5.6091,-0.84666 -2.7517,-0.10583 -5.5033,-0.10583 -8.3608,0.21167 -1.7992,0.21166 -1.7992,0.10583 -1.5875,-1.5875 0,-0.10583 0,-0.21166 0,-0.21166 0.8467,-5.39749 2.1166,-10.68914 3.4925,-15.87495 0.4233,-1.5875 0.5291,-1.48167 2.2225,-1.37583 5.2916,0.3175 10.4774,1.16416 15.5574,2.43416 1.7992,0.52916 2.9633,0 4.1275,-1.27 1.7992,-2.32833 2.3283,-4.86832 2.1167,-7.61998 -0.3175,-2.75165 -1.6934,-4.65665 -4.445,-5.60915 -2.1167,-0.63499 -4.3392,-1.26999 -6.4558,-1.69332 -8.5725,-1.79916 -17.2508,-2.54 -26.035,-1.05833 -4.4449,0.74083 -8.4666,2.11666 -11.9591,4.86831 -3.81,3.06916 -4.1275,7.40831 -0.8466,11.00664 1.1641,1.26999 2.5399,2.32832 4.8683,2.01082 z m 328.1295,77.24037 c -1.3273,-0.3717 -4.8759,-8.6315 -13.3254,-31.0173 -6.3339,-16.781 -12.0838,-32.3603 -12.7773,-34.6207 l -1.2611,-4.11 -10.614,3.3121 c -9.6731,3.0188 -11.2952,3.1878 -18.3012,1.9068 -11.0645,-2.023 -17.036,-7.4744 -20.3809,-18.6063 -2.1294,-7.0867 -2.2251,-9.37 -0.7579,-18.0678 1.8455,-10.9405 8.2003,-23.2731 12.687,-24.6213 4.0723,-1.2236 10.8244,-0.6977 13.642,1.0626 2.8692,1.7925 3.2423,5.0273 0.6687,5.8006 -0.9086,0.273 -1.5006,-0.069 -1.3156,-0.7594 0.8572,-3.2004 -2.5353,-1.4089 -6.4674,3.4151 -5.5328,6.7881 -5.5313,8.4226 0.01,7.8308 8.0115,-0.8561 18.8218,-5.7554 25.082,-11.3673 7.5484,-6.7668 17.2308,-24.605 19.3677,-35.6821 5.2468,-27.1967 -6.571,-50.8719 -27.3154,-54.72187 -6.5537,-1.2164 -8.0548,-1.0424 -16.3583,1.89597 -7.5328,2.6656 -10.2873,4.3003 -15.6438,9.2841 -12.1712,11.3243 -20.3118,31.0873 -20.094,48.7826 0.1385,11.2422 5.741,26.3272 12.0447,32.4304 4.7745,4.6227 4.7969,4.6746 3.2481,7.5539 -1.5487,2.8793 -1.5837,2.8776 -5.0994,-0.251 -17.5619,-15.6287 -20.2427,-49.1939 -6.0459,-75.6965 12.5402,-23.41027 33.9798,-35.57287 52.7301,-29.91367 25.411,7.66957 36.851,48.97567 21.942,79.22477 -4.7078,9.5516 -4.3814,10.508 0.8218,2.4076 6.5156,-10.1442 10.2212,-26.5776 9.0571,-40.1674 -1.1445,-13.3628 -7.6323,-27.4199 -15.8117,-34.2594 -5.4354,-4.54487 -3.4504,-4.88337 3.6039,-0.61457 8.5,5.14367 12.9768,10.98257 16.9058,22.04997 4.0577,11.4297 4.7404,21.1603 2.455,34.9921 -1.9057,11.5343 -9.7607,28.053 -17.2664,36.3106 -4.6964,5.1668 -5.6112,5.7274 -8.4198,5.1596 -6.6047,-1.3354 -21.4108,7.3428 -17.8751,10.4772 2.5502,2.2608 -10.9859,2.3742 -18.9457,0.1588 -3.1492,-0.8765 -6.1536,-1.4651 -6.6766,-1.308 -1.7283,0.5193 -3.2825,10.5529 -2.4532,15.837 1.0452,6.6785 5.165,11.7642 11.4284,14.1195 5.2188,1.9625 16.9128,1.9559 23.4664,-0.013 4.0586,-1.2196 4.1693,-1.4206 3.4718,-6.3147 -2.0117,-14.1149 -2.7959,-16.7277 -5.9732,-19.9033 -4.0434,-4.0394 -3.2894,-5.4689 4.6238,-8.7656 7.9721,-3.3213 10.4241,-3.201 9.6809,0.4752 -0.6292,3.1129 1.1922,10.33 3.4362,13.6158 1.3712,2.0074 1.0995,2.3394 -2.8967,3.5402 -2.4254,0.7288 -5.1846,2.3529 -6.1313,3.6091 -1.5354,2.0373 -0.9737,1.9838 5.2003,-0.4949 l 6.9215,-2.779 2.3797,3.282 c 1.9559,2.6976 2.7699,3.0201 4.571,1.8107 1.2051,-0.8093 5.6984,-2.8024 9.985,-4.4292 9.8515,-3.7386 15.2019,-2.9322 21.2069,3.1966 8.7315,8.9116 9.2699,26.9632 1.2806,42.9363 -6.0119,12.0196 -6.2937,16.7755 -0.8978,15.1542 1.2147,-0.365 2.3567,-0.1696 2.5381,0.4341 0.6076,2.0226 -3.7098,5.1557 -7.8579,5.7024 l -4.1073,0.5414 2.1801,4.4081 2.1799,4.4082 -4.0301,0.4582 c -4.2889,0.4877 -11.7365,4.2346 -12.9683,6.5244 -0.4572,0.8502 2.596,0.1524 7.9766,-1.8228 6.7242,-2.4687 8.5171,-2.8016 7.8419,-1.4577 -1.7341,3.4522 -12.9922,8.656 -16.563,7.656 z m -0.8457,-50.0325 c -10.7874,-26.3327 -14.8704,-35.2641 -16.137,-35.2998 -1.2609,-0.036 -1.2821,0.74 -0.082,3.0251 0.8874,1.6903 7.4168,17.5162 14.5097,35.1687 13.5315,33.6765 14.5254,35.8321 15.5317,33.6818 0.3406,-0.7281 -5.8793,-17.1872 -13.822,-36.5758 z m 21.222,-12.679 c 0.8293,-4.4914 0.6632,-8.4903 -0.5255,-12.6555 -1.5789,-5.5318 -2.1873,-6.2994 -6.648,-8.3864 -4.7328,-2.2143 -5.2081,-2.1864 -13.1676,0.7732 -4.5417,1.6886 -8.5805,3.6707 -8.9752,4.4043 -0.6339,1.1786 9.9673,28.9501 14.9156,39.0735 l 1.7035,3.4857 5.7424,-10.0644 c 3.1583,-5.5353 6.2878,-13.0191 6.9548,-16.6304 z m -43.6036,-34.5502 c -0.9247,-3.0774 -1.6079,-6.5763 -1.5186,-7.7754 0.1122,-1.5021 -0.2688,-1.8762 -1.2241,-1.2033 -1.8967,1.3361 -1.638,7.4741 0.4941,11.7236 2.6807,5.3427 4.1426,3.5581 2.2486,-2.7449 z m -18.8468,-37.4275 c -4.377,-2.9153 -17.3744,-3.8785 -24.5761,-1.8213 -6.7401,1.9252 -6.8051,1.9147 -3.9106,-0.6306 6.8236,-6.0005 20.6521,-7.0379 28.4963,-2.1378 2.5633,1.6012 4.5076,3.4819 4.3207,4.1794 -0.501,1.871 -1.9333,2.0067 -4.3303,0.4103 z m -2.5346,-19.1151 c -1.8733,-1.0077 -2.7607,-2.7266 -3.6073,-6.9886 -1.2675,-6.38 0.4506,-11.3536 4.1132,-11.9064 1.967,-0.2968 2.7977,0.5764 4.296,4.5164 3.3529,8.8168 0.5364,17.2501 -4.8019,14.3786 z m -28.6984,-1.1738 c -4.1071,-5.3105 -3.5781,-15.9903 0.8251,-16.6582 2.2054,-0.3345 2.9053,0.4259 4.6047,5.0024 1.3153,3.5419 1.6695,6.5263 1.0302,8.6831 -1.1061,3.7326 -4.6212,5.3501 -6.4599,2.9727 z m 31.1168,-19.9336 c -9.4554,1.4029 -10.1817,1.2583 -6.87,-1.367 4.0003,-3.1714 10.1279,-4.7631 15.3023,-3.975 9.1831,1.3989 6.4422,3.1353 -8.4323,5.342 z m -25.0772,-5.7173 c -2.3962,-4.5002 -6.1176,-6.1816 -9.8334,-4.4431 -3.5481,1.6601 -4.4891,0.5004 -1.7817,-2.1957 4.7806,-4.7605 11.5065,-3.3118 13.329,2.871 1.4956,5.0741 0.3376,7.6203 -1.7139,3.7678 z"
       id="path21510"
       sodipodi:insensitive="true" />
  </g>
</svg>
